<svg xmlns="http://www.w3.org/2000/svg" width="512" height="512" viewBox="0 0 512 512">
  <!-- 背景（空） -->
  <rect width="512" height="512" fill="#69b7ff"/>
  <rect y="330" width="512" height="182" fill="#7ec0ff" opacity="0.45"/>
  <!-- 太陽 -->
  <rect x="400" y="56" width="56" height="56" fill="#fff1a8"/>
  <!-- グラスブロック -->
  <g>
    <rect x="120" y="150" width="272" height="240" fill="#7a5230"/>
    <rect x="120" y="150" width="272" height="70" fill="#5fa83a"/>
    <rect x="120" y="206" width="272" height="16" fill="#4f8f30"/>
    <!-- 土のドット -->
    <g fill="#5e3f24">
      <rect x="150" y="250" width="22" height="22"/><rect x="210" y="300" width="22" height="22"/>
      <rect x="300" y="260" width="22" height="22"/><rect x="340" y="330" width="22" height="22"/>
      <rect x="180" y="350" width="22" height="22"/><rect x="260" y="350" width="22" height="22"/>
    </g>
    <rect x="120" y="150" width="272" height="240" fill="none" stroke="#3a2a18" stroke-width="8"/>
  </g>
  <!-- 光るキーキャップ（A） -->
  <g>
    <rect x="276" y="276" width="150" height="150" rx="20" fill="#d9a32e"/>
    <rect x="276" y="276" width="150" height="128" rx="20" fill="#ffd34d"/>
    <text x="351" y="372" font-family="ui-rounded, system-ui, Arial, sans-serif" font-size="110" font-weight="900" fill="#3a2c00" text-anchor="middle">A</text>
  </g>
</svg>
